<?xml version="1.0" encoding="UTF-8"?>
<svg xmlns="http://www.w3.org/2000/svg" version="1.1" viewBox="0 0 377.95 377.95">
  <!-- Generator: Adobe Illustrator 29.8.1, SVG Export Plug-In . SVG Version: 2.1.1 Build 2)  -->
  <defs>
    <style>
      .st0 {
        isolation: isolate;
      }

      .st1 {
        stroke: #3c3c38;
      }

      .st1, .st2 {
        fill: none;
        stroke-miterlimit: 100;
      }

      .st2 {
        stroke: #000;
      }
    </style>
  </defs>
  <g id="H__a_b_i_t_a_r_i_s">
    <g>
      <path d="M38.28,215.34v-34.7h6.98v13.92h15.19v-13.92h7.01v34.7h-7.01v-14.9h-15.19v14.9h-6.98Z"/>
      <path d="M103.68,215.82c-1.6,0-3.01-.29-4.24-.85-1.22-.57-2.18-1.38-2.86-2.44-.68-1.06-1.02-2.33-1.02-3.82,0-2.75.94-4.79,2.83-6.12,1.89-1.33,4.94-2.05,9.14-2.16l4.78-.14v-2.04c0-1.63-.49-2.93-1.46-3.89-.98-.96-2.49-1.44-4.54-1.44-1.54,0-2.87.36-4,1.08-1.13.72-1.84,1.86-2.15,3.43h-3.41c.1-1.57.53-2.9,1.31-4,.78-1.1,1.88-1.94,3.3-2.52,1.42-.58,3.13-.88,5.11-.88s3.8.3,5.2.9c1.4.6,2.46,1.5,3.18,2.69.72,1.19,1.08,2.67,1.08,4.43v17.28h-3.24l-.24-4.75c-.99,1.97-2.26,3.33-3.79,4.09-1.54.76-3.2,1.14-4.99,1.14ZM104.76,213.01c.88,0,1.76-.16,2.65-.48.89-.32,1.7-.76,2.45-1.32.74-.56,1.34-1.18,1.79-1.87.45-.69.67-1.39.67-2.11v-4.42l-3.98.07c-2.1.03-3.82.24-5.16.62-1.34.38-2.34.97-2.98,1.76-.64.79-.96,1.83-.96,3.11,0,1.46.51,2.59,1.54,3.41,1.02.82,2.35,1.22,3.98,1.22Z"/>
      <path d="M146.95,215.82c-1.52,0-2.8-.2-3.83-.61-1.03-.41-1.87-.92-2.51-1.52-.64-.61-1.13-1.22-1.46-1.85s-.58-1.15-.72-1.58l-.38,5.09h-2.95v-35.66h3.79v14.93c.18-.37.47-.81.89-1.32.42-.51.96-1.02,1.63-1.51.67-.5,1.49-.91,2.45-1.24s2.07-.49,3.34-.49c3.1,0,5.58,1.07,7.44,3.22,1.86,2.14,2.78,5.34,2.78,9.58,0,2.61-.39,4.88-1.16,6.83-.78,1.94-1.94,3.46-3.48,4.54-1.54,1.08-3.48,1.62-5.82,1.62ZM146.35,212.84c2.14,0,3.89-.82,5.23-2.47,1.34-1.65,2.02-4.24,2.02-7.78,0-2.98-.62-5.31-1.85-7-1.23-1.69-3.06-2.53-5.5-2.53-1.78,0-3.2.38-4.27,1.13-1.07.75-1.85,1.84-2.34,3.26-.49,1.42-.74,3.14-.76,5.14,0,3.62.57,6.23,1.7,7.84,1.14,1.61,3.06,2.41,5.76,2.41Z"/>
      <path d="M175.11,184.81v-4.15h3.94v4.15h-3.94ZM175.27,215.34v-24.82h3.65v24.82h-3.65Z"/>
      <path d="M207.27,215.43c-1.58,0-2.82-.22-3.7-.67-.88-.45-1.49-1.11-1.84-1.99-.34-.88-.52-1.98-.52-3.31v-16.13h-4.03v-2.81h4.13l.89-7.15h2.78v7.13h5.62v2.83h-5.62v16.01c0,.96.09,1.66.28,2.1.18.44.51.72.98.84.47.12,1.13.18,1.98.18h2.54v2.59c-.3.11-.76.2-1.36.28-.6.07-1.32.11-2.15.11Z"/>
      <path d="M235.66,215.82c-1.6,0-3.01-.29-4.24-.85-1.22-.57-2.18-1.38-2.86-2.44-.68-1.06-1.02-2.33-1.02-3.82,0-2.75.94-4.79,2.83-6.12,1.89-1.33,4.94-2.05,9.14-2.16l4.78-.14v-2.04c0-1.63-.49-2.93-1.46-3.89-.98-.96-2.49-1.44-4.54-1.44-1.54,0-2.87.36-4,1.08s-1.84,1.86-2.15,3.43h-3.41c.1-1.57.53-2.9,1.31-4,.78-1.1,1.88-1.94,3.3-2.52s3.13-.88,5.11-.88,3.8.3,5.2.9c1.4.6,2.46,1.5,3.18,2.69.72,1.19,1.08,2.67,1.08,4.43v17.28h-3.24l-.24-4.75c-.99,1.97-2.26,3.33-3.79,4.09s-3.2,1.14-4.99,1.14ZM236.74,213.01c.88,0,1.76-.16,2.65-.48s1.7-.76,2.45-1.32c.74-.56,1.34-1.18,1.79-1.87.45-.69.67-1.39.67-2.11v-4.42l-3.98.07c-2.1.03-3.82.24-5.16.62s-2.34.97-2.98,1.76c-.64.79-.96,1.83-.96,3.11,0,1.46.51,2.59,1.54,3.41,1.02.82,2.35,1.22,3.98,1.22Z"/>
      <path d="M267.07,215.34v-24.82h3.55v4.49c.42-1.17,1-2.12,1.76-2.84.76-.73,1.62-1.26,2.57-1.61.95-.34,1.92-.52,2.89-.52.4,0,.79.03,1.18.08s.69.15.91.28v3.65c-.26-.13-.6-.22-1.02-.26s-.78-.07-1.07-.07c-.88-.05-1.74.02-2.57.2s-1.59.5-2.27.95c-.68.45-1.22,1.04-1.61,1.79-.39.74-.59,1.66-.59,2.75v15.94h-3.74Z"/>
      <path d="M297.43,184.81v-4.15h3.94v4.15h-3.94ZM297.6,215.34v-24.82h3.65v24.82h-3.65Z"/>
      <path d="M329.59,215.82c-1.73,0-3.32-.27-4.76-.8-1.45-.54-2.64-1.36-3.59-2.47-.94-1.11-1.53-2.53-1.75-4.26h3.48c.21.99.61,1.83,1.21,2.52.6.69,1.36,1.21,2.28,1.57s1.96.54,3.11.54c1.76,0,3.18-.34,4.26-1.02,1.08-.68,1.62-1.72,1.62-3.13,0-.98-.28-1.76-.83-2.35s-1.4-1.02-2.53-1.3l-5.33-1.37c-1.95-.5-3.51-1.24-4.67-2.23-1.16-.99-1.74-2.38-1.74-4.18-.02-1.44.32-2.7,1-3.79s1.7-1.94,3.07-2.57,3.08-.94,5.12-.94c2.59,0,4.69.59,6.3,1.76,1.61,1.18,2.45,2.92,2.53,5.22h-3.38c-.18-1.25-.73-2.24-1.66-2.99s-2.2-1.12-3.82-1.12-3.05.34-4.1,1.03-1.58,1.75-1.58,3.19c0,.94.36,1.68,1.09,2.22.73.54,1.78.98,3.16,1.33l5.23,1.37c1.09.29,1.99.67,2.7,1.14s1.28,1,1.7,1.58.72,1.2.9,1.86c.18.66.26,1.29.26,1.9,0,1.49-.36,2.78-1.07,3.86s-1.76,1.93-3.14,2.52-3.08.89-5.08.89Z"/>
    </g>
  </g>
  <g id="Rectángulo_1" class="st0">
    <g id="Rectángulo_11" data-name="Rectángulo_1">
      <rect class="st2" x="24.02" y="168.34" width="59.58" height="58.98"/>
    </g>
  </g>
  <g id="Línea_1" class="st0">
    <g id="Línea_11" data-name="Línea_1">
      <rect class="st1" x="18.99" y="163.18" width=".08" height="39.88"/>
    </g>
  </g>
  <g id="Línea_1_copia" class="st0">
    <g id="Línea_1_copia1" data-name="Línea_1_copia">
      <rect class="st1" x="39.48" y="143.39" width=".08" height="39.88" transform="translate(-124 202.07) rotate(-89.72)"/>
    </g>
  </g>
  <g id="Línea_1_copia_2" class="st0">
    <g id="Línea_1_copia_21" data-name="Línea_1_copia_2">
      <rect class="st1" x="78.76" y="182.45" width=".08" height="39.88"/>
    </g>
  </g>
  <g id="Línea_1_copia_3" class="st0">
    <g id="Línea_1_copia_31" data-name="Línea_1_copia_3">
      <rect class="st1" x="57.99" y="202.25" width=".08" height="39.88" transform="translate(-164.39 279.32) rotate(-89.77)"/>
    </g>
  </g>
</svg>